<svg xmlns="http://www.w3.org/2000/svg" version="1.1" xmlns:xlink="http://www.w3.org/1999/xlink" xmlns:svgjs="http://svgjs.com/svgjs" width="1440" height="560" preserveAspectRatio="none" viewBox="0 0 1440 560">
<defs>
    <filter id="blurr">
        <feGaussianBlur in="SourceGraphic" stdDeviation="15"/>
    </filter>
</defs>
<g mask="url(&quot;#SvgjsMask1006&quot;)" fill="none"><rect width="1440" height="560" x="0" y="0" fill="#0e2a47"></rect><path d="M1377.501,743.319C1422.594,743.423,1469.15,729.39,1492.193,690.629C1515.663,651.151,1506.567,602.889,1485.134,562.269C1461.848,518.136,1427.359,475.286,1377.501,473.259C1324.92,471.122,1278.016,506.258,1253.565,552.857C1230.72,596.395,1236.905,648.892,1263.721,690.102C1288.197,727.716,1332.625,743.216,1377.501,743.319" fill="rgba(28, 83, 142, 0.4)" class="triangle-float2"></path><path d="M73.36295207350494 127.90585952647467L-26.049635473976704 259.56956129443694 116.76476342075554 279.64081612262294z" fill="rgba(28, 83, 142, 0.4)" class="triangle-float2"></path><path d="M1431.8103573474186 517.0713035262111L1363.9026857266092 383.79499379881634 1230.6263759992144 451.7026654196259 1298.534047620024 584.9789751470206z" fill="rgba(28, 83, 142, 0.4)" class="triangle-float1"></path><path d="M477.04181061890193 545.7366714578541L436.49226163092794 450.2079205414494 340.9635107145233 490.7574695294235 381.5130597024973 586.2862204458281z" fill="rgba(28, 83, 142, 0.4)" class="triangle-float3"></path><path d="M1014.1931413106508 69.70955847057677L971.3800398850711 229.4902282204398 1131.1607096349342 272.3033296460195 1173.973811060514 112.52265989615648z" fill="rgba(28, 83, 142, 0.4)" class="triangle-float1"></path><path d="M501.79600574134474 56.57728981527931L501.7960057413448 203.2760214356952 648.4947373617607 203.27602143569518 648.4947373617606 56.57728981527927z" fill="rgba(28, 83, 142, 0.4)" class="triangle-float3"></path><path d="M1207.9387789624088 150.38373291159468L1186.9524170271034 299.7094572090632 1336.278141324572 320.69581914436867 1357.2645032598773 171.3700948469001z" fill="rgba(28, 83, 142, 0.4)" class="triangle-float3"></path><path d="M345.3233673999977 162.02075850444993L196.994849799761 99.05903825744636 134.03312955275743 247.38755585768308 282.3616471529941 310.3492761046866z" fill="rgba(28, 83, 142, 0.4)" class="triangle-float3"></path><path d="M882.681,350.925C927.654,350.946,966.276,322.51,989.176,283.804C1012.556,244.286,1022.17,194.788,998.239,155.602C975.067,117.659,927.008,105.995,882.681,109.423C844.274,112.393,814.484,138.477,794.422,171.363C773.251,206.066,758.429,247.221,776.361,283.703C796.185,324.034,837.741,350.904,882.681,350.925" fill="rgba(28, 83, 142, 0.4)" class="triangle-float2"></path><path d="M377.7331985086702-54.497101347730506L342.27832700536493 61.47055794687432 458.2459862999698 96.92542945017962 493.7008578032751-19.042229844425215z" fill="rgba(28, 83, 142, 0.4)" class="triangle-float1"></path><path d="M58.861,99.874C85.769,98.323,107.373,80.562,121.251,57.457C135.65,33.485,144.56,4.244,130.99,-20.207C117.109,-45.217,87.461,-54.468,58.861,-54.957C29.2,-55.465,-1.805,-47.815,-17.673,-22.751C-34.529,3.873,-34.054,38.716,-17.37,65.448C-1.548,90.799,29.028,101.594,58.861,99.874" fill="rgba(28, 83, 142, 0.4)" class="triangle-float2"></path></g><defs><mask id="SvgjsMask1006"><rect width="1440" height="560" fill="#ffffff"></rect></mask><style>
            @keyframes float1 {
                0%{transform: translate(0, 0)}
                50%{transform: translate(-25px, -30px)}
                100%{transform: translate(0, 0)}
            }

            .triangle-float1 {
                animation: float1 5s infinite;
            }

            @keyframes float2 {
                0%{transform: translate(0, 0)}
                50%{transform: translate(-35px, -25px)}
                100%{transform: translate(0, 0)}
            }

            .triangle-float2 {
                animation: float2 4s infinite;
            }

            @keyframes float3 {
                0%{transform: translate(0, 0)}
                50%{transform: translate(-40px, -10px)}
                100%{transform: translate(0, 0)}
            }

            .triangle-float3 {
                animation: float3 6s infinite;
            }
        </style></defs></svg>