<svg xmlns="http://www.w3.org/2000/svg" version="1.1" xmlns:xlink="http://www.w3.org/1999/xlink" xmlns:svgjs="http://svgjs.com/svgjs" width="1440" height="560" preserveAspectRatio="none" viewBox="0 0 1440 560"><g mask="url(&quot;#SvgjsMask1563&quot;)" fill="none"><rect width="1440" height="560" x="0" y="0" fill="url(#SvgjsLinearGradient1564)"></rect><path d="M71.62 299.97L136.58 337.47L136.58 412.47L71.62 449.97L6.67 412.47L6.67 337.47zM71.62 524.97L136.58 562.47L136.58 637.47L71.62 674.97L6.67 637.47L6.67 562.47zM136.58 187.47L201.53 224.97L201.53 299.97L136.58 337.47L71.62 299.97L71.62 224.97zM266.49 -37.53L331.44 -0.03L331.44 74.97L266.49 112.47L201.53 74.97L201.53 -0.03zM266.49 187.47L331.44 224.97L331.44 299.97L266.49 337.47L201.53 299.97L201.53 224.97zM266.49 412.47L331.44 449.97L331.44 524.97L266.49 562.47L201.53 524.97L201.53 449.97zM331.44 524.97L396.39 562.47L396.39 637.47L331.44 674.97L266.49 637.47L266.49 562.47zM396.39 187.47L461.35 224.97L461.35 299.97L396.39 337.47L331.44 299.97L331.44 224.97zM526.3 187.47L591.25 224.97L591.25 299.97L526.3 337.47L461.35 299.97L461.35 224.97zM591.25 524.97L656.21 562.47L656.21 637.47L591.25 674.97L526.3 637.47L526.3 562.47zM656.21 187.47L721.16 224.97L721.16 299.97L656.21 337.47L591.25 299.97L591.25 224.97zM721.16 299.97L786.12 337.47L786.12 412.47L721.16 449.97L656.21 412.47L656.21 337.47zM721.16 524.97L786.12 562.47L786.12 637.47L721.16 674.97L656.21 637.47L656.21 562.47zM786.11 412.47L851.07 449.97L851.07 524.97L786.11 562.47L721.16 524.97L721.16 449.97zM916.02 412.47L980.98 449.97L980.98 524.97L916.02 562.47L851.07 524.97L851.07 449.97zM1370.7 74.97L1435.65 112.47L1435.65 187.47L1370.7 224.97L1305.75 187.47L1305.75 112.47zM1305.75 412.47L1370.7 449.97L1370.7 524.97L1305.75 562.47L1240.79 524.97L1240.79 449.97zM1500.61 299.97L1565.56 337.47L1565.56 412.47L1500.61 449.97L1435.65 412.47L1435.65 337.47z" stroke="#03305d" stroke-width="2"></path><path d="M64.12 299.97 a7.5 7.5 0 1 0 15 0 a7.5 7.5 0 1 0 -15 0zM129.08 337.47 a7.5 7.5 0 1 0 15 0 a7.5 7.5 0 1 0 -15 0zM129.08 412.47 a7.5 7.5 0 1 0 15 0 a7.5 7.5 0 1 0 -15 0zM64.12 449.97 a7.5 7.5 0 1 0 15 0 a7.5 7.5 0 1 0 -15 0zM-0.83 412.47 a7.5 7.5 0 1 0 15 0 a7.5 7.5 0 1 0 -15 0zM-0.83 337.47 a7.5 7.5 0 1 0 15 0 a7.5 7.5 0 1 0 -15 0zM64.12 524.97 a7.5 7.5 0 1 0 15 0 a7.5 7.5 0 1 0 -15 0zM129.08 562.47 a7.5 7.5 0 1 0 15 0 a7.5 7.5 0 1 0 -15 0zM129.08 637.47 a7.5 7.5 0 1 0 15 0 a7.5 7.5 0 1 0 -15 0zM64.12 674.97 a7.5 7.5 0 1 0 15 0 a7.5 7.5 0 1 0 -15 0zM-0.83 637.47 a7.5 7.5 0 1 0 15 0 a7.5 7.5 0 1 0 -15 0zM-0.83 562.47 a7.5 7.5 0 1 0 15 0 a7.5 7.5 0 1 0 -15 0zM129.08 187.47 a7.5 7.5 0 1 0 15 0 a7.5 7.5 0 1 0 -15 0zM194.03 224.97 a7.5 7.5 0 1 0 15 0 a7.5 7.5 0 1 0 -15 0zM194.03 299.97 a7.5 7.5 0 1 0 15 0 a7.5 7.5 0 1 0 -15 0zM64.12 224.97 a7.5 7.5 0 1 0 15 0 a7.5 7.5 0 1 0 -15 0zM258.99 -37.53 a7.5 7.5 0 1 0 15 0 a7.5 7.5 0 1 0 -15 0zM323.94 -0.03 a7.5 7.5 0 1 0 15 0 a7.5 7.5 0 1 0 -15 0zM323.94 74.97 a7.5 7.5 0 1 0 15 0 a7.5 7.5 0 1 0 -15 0zM258.99 112.47 a7.5 7.5 0 1 0 15 0 a7.5 7.5 0 1 0 -15 0zM194.03 74.97 a7.5 7.5 0 1 0 15 0 a7.5 7.5 0 1 0 -15 0zM194.03 -0.03 a7.5 7.5 0 1 0 15 0 a7.5 7.5 0 1 0 -15 0zM258.99 187.47 a7.5 7.5 0 1 0 15 0 a7.5 7.5 0 1 0 -15 0zM323.94 224.97 a7.5 7.5 0 1 0 15 0 a7.5 7.5 0 1 0 -15 0zM323.94 299.97 a7.5 7.5 0 1 0 15 0 a7.5 7.5 0 1 0 -15 0zM258.99 337.47 a7.5 7.5 0 1 0 15 0 a7.5 7.5 0 1 0 -15 0zM258.99 412.47 a7.5 7.5 0 1 0 15 0 a7.5 7.5 0 1 0 -15 0zM323.94 449.97 a7.5 7.5 0 1 0 15 0 a7.5 7.5 0 1 0 -15 0zM323.94 524.97 a7.5 7.5 0 1 0 15 0 a7.5 7.5 0 1 0 -15 0zM258.99 562.47 a7.5 7.5 0 1 0 15 0 a7.5 7.5 0 1 0 -15 0zM194.03 524.97 a7.5 7.5 0 1 0 15 0 a7.5 7.5 0 1 0 -15 0zM194.03 449.97 a7.5 7.5 0 1 0 15 0 a7.5 7.5 0 1 0 -15 0zM388.89 562.47 a7.5 7.5 0 1 0 15 0 a7.5 7.5 0 1 0 -15 0zM388.89 637.47 a7.5 7.5 0 1 0 15 0 a7.5 7.5 0 1 0 -15 0zM323.94 674.97 a7.5 7.5 0 1 0 15 0 a7.5 7.5 0 1 0 -15 0zM258.99 637.47 a7.5 7.5 0 1 0 15 0 a7.5 7.5 0 1 0 -15 0zM388.89 187.47 a7.5 7.5 0 1 0 15 0 a7.5 7.5 0 1 0 -15 0zM453.85 224.97 a7.5 7.5 0 1 0 15 0 a7.5 7.5 0 1 0 -15 0zM453.85 299.97 a7.5 7.5 0 1 0 15 0 a7.5 7.5 0 1 0 -15 0zM388.89 337.47 a7.5 7.5 0 1 0 15 0 a7.5 7.5 0 1 0 -15 0zM518.8 187.47 a7.5 7.5 0 1 0 15 0 a7.5 7.5 0 1 0 -15 0zM583.75 224.97 a7.5 7.5 0 1 0 15 0 a7.5 7.5 0 1 0 -15 0zM583.75 299.97 a7.5 7.5 0 1 0 15 0 a7.5 7.5 0 1 0 -15 0zM518.8 337.47 a7.5 7.5 0 1 0 15 0 a7.5 7.5 0 1 0 -15 0zM583.75 524.97 a7.5 7.5 0 1 0 15 0 a7.5 7.5 0 1 0 -15 0zM648.71 562.47 a7.5 7.5 0 1 0 15 0 a7.5 7.5 0 1 0 -15 0zM648.71 637.47 a7.5 7.5 0 1 0 15 0 a7.5 7.5 0 1 0 -15 0zM583.75 674.97 a7.5 7.5 0 1 0 15 0 a7.5 7.5 0 1 0 -15 0zM518.8 637.47 a7.5 7.5 0 1 0 15 0 a7.5 7.5 0 1 0 -15 0zM518.8 562.47 a7.5 7.5 0 1 0 15 0 a7.5 7.5 0 1 0 -15 0zM648.71 187.47 a7.5 7.5 0 1 0 15 0 a7.5 7.5 0 1 0 -15 0zM713.66 224.97 a7.5 7.5 0 1 0 15 0 a7.5 7.5 0 1 0 -15 0zM713.66 299.97 a7.5 7.5 0 1 0 15 0 a7.5 7.5 0 1 0 -15 0zM648.71 337.47 a7.5 7.5 0 1 0 15 0 a7.5 7.5 0 1 0 -15 0zM778.62 337.47 a7.5 7.5 0 1 0 15 0 a7.5 7.5 0 1 0 -15 0zM778.62 412.47 a7.5 7.5 0 1 0 15 0 a7.5 7.5 0 1 0 -15 0zM713.66 449.97 a7.5 7.5 0 1 0 15 0 a7.5 7.5 0 1 0 -15 0zM648.71 412.47 a7.5 7.5 0 1 0 15 0 a7.5 7.5 0 1 0 -15 0zM713.66 524.97 a7.5 7.5 0 1 0 15 0 a7.5 7.5 0 1 0 -15 0zM778.62 562.47 a7.5 7.5 0 1 0 15 0 a7.5 7.5 0 1 0 -15 0zM778.62 637.47 a7.5 7.5 0 1 0 15 0 a7.5 7.5 0 1 0 -15 0zM713.66 674.97 a7.5 7.5 0 1 0 15 0 a7.5 7.5 0 1 0 -15 0zM778.61 412.47 a7.5 7.5 0 1 0 15 0 a7.5 7.5 0 1 0 -15 0zM843.57 449.97 a7.5 7.5 0 1 0 15 0 a7.5 7.5 0 1 0 -15 0zM843.57 524.97 a7.5 7.5 0 1 0 15 0 a7.5 7.5 0 1 0 -15 0zM778.61 562.47 a7.5 7.5 0 1 0 15 0 a7.5 7.5 0 1 0 -15 0zM908.52 412.47 a7.5 7.5 0 1 0 15 0 a7.5 7.5 0 1 0 -15 0zM973.48 449.97 a7.5 7.5 0 1 0 15 0 a7.5 7.5 0 1 0 -15 0zM973.48 524.97 a7.5 7.5 0 1 0 15 0 a7.5 7.5 0 1 0 -15 0zM908.52 562.47 a7.5 7.5 0 1 0 15 0 a7.5 7.5 0 1 0 -15 0zM1363.2 74.97 a7.5 7.5 0 1 0 15 0 a7.5 7.5 0 1 0 -15 0zM1428.15 112.47 a7.5 7.5 0 1 0 15 0 a7.5 7.5 0 1 0 -15 0zM1428.15 187.47 a7.5 7.5 0 1 0 15 0 a7.5 7.5 0 1 0 -15 0zM1363.2 224.97 a7.5 7.5 0 1 0 15 0 a7.5 7.5 0 1 0 -15 0zM1298.25 187.47 a7.5 7.5 0 1 0 15 0 a7.5 7.5 0 1 0 -15 0zM1298.25 112.47 a7.5 7.5 0 1 0 15 0 a7.5 7.5 0 1 0 -15 0zM1298.25 412.47 a7.5 7.5 0 1 0 15 0 a7.5 7.5 0 1 0 -15 0zM1363.2 449.97 a7.5 7.5 0 1 0 15 0 a7.5 7.5 0 1 0 -15 0zM1363.2 524.97 a7.5 7.5 0 1 0 15 0 a7.5 7.5 0 1 0 -15 0zM1298.25 562.47 a7.5 7.5 0 1 0 15 0 a7.5 7.5 0 1 0 -15 0zM1233.29 524.97 a7.5 7.5 0 1 0 15 0 a7.5 7.5 0 1 0 -15 0zM1233.29 449.97 a7.5 7.5 0 1 0 15 0 a7.5 7.5 0 1 0 -15 0zM1493.11 299.97 a7.5 7.5 0 1 0 15 0 a7.5 7.5 0 1 0 -15 0zM1558.06 337.47 a7.5 7.5 0 1 0 15 0 a7.5 7.5 0 1 0 -15 0zM1558.06 412.47 a7.5 7.5 0 1 0 15 0 a7.5 7.5 0 1 0 -15 0zM1493.11 449.97 a7.5 7.5 0 1 0 15 0 a7.5 7.5 0 1 0 -15 0zM1428.15 412.47 a7.5 7.5 0 1 0 15 0 a7.5 7.5 0 1 0 -15 0zM1428.15 337.47 a7.5 7.5 0 1 0 15 0 a7.5 7.5 0 1 0 -15 0z" fill="#03305d"></path><path d="M58.66 23.58L90.71 42.08L90.71 79.08L58.66 97.58L26.62 79.08L26.62 42.08zM26.62 79.08L58.66 97.58L58.66 134.58L26.62 153.08L-5.42 134.58L-5.42 97.58zM26.62 412.08L58.66 430.58L58.66 467.58L26.62 486.08L-5.42 467.58L-5.42 430.58zM58.66 467.58L90.71 486.08L90.71 523.08L58.66 541.58L26.62 523.08L26.62 486.08zM122.75 23.58L154.8 42.08L154.8 79.08L122.75 97.58L90.71 79.08L90.71 42.08zM122.75 134.58L154.8 153.08L154.8 190.08L122.75 208.58L90.71 190.08L90.71 153.08zM90.71 190.08L122.75 208.58L122.75 245.58L90.71 264.08L58.66 245.58L58.66 208.58zM90.71 301.08L122.75 319.58L122.75 356.58L90.71 375.08L58.66 356.58L58.66 319.58zM122.75 467.58L154.8 486.08L154.8 523.08L122.75 541.58L90.71 523.08L90.71 486.08zM186.84 23.58L218.88 42.08L218.88 79.08L186.84 97.58L154.8 79.08L154.8 42.08zM186.84 134.58L218.88 153.08L218.88 190.08L186.84 208.58L154.8 190.08L154.8 153.08zM154.8 190.08L186.84 208.58L186.84 245.58L154.8 264.08L122.75 245.58L122.75 208.58zM186.84 245.58L218.88 264.08L218.88 301.08L186.84 319.58L154.8 301.08L154.8 264.08zM186.84 356.58L218.88 375.08L218.88 412.08L186.84 430.58L154.8 412.08L154.8 375.08zM154.8 412.08L186.84 430.58L186.84 467.58L154.8 486.08L122.75 467.58L122.75 430.58zM186.84 467.58L218.88 486.08L218.88 523.08L186.84 541.58L154.8 523.08L154.8 486.08zM250.93 245.58L282.97 264.08L282.97 301.08L250.93 319.58L218.88 301.08L218.88 264.08zM250.93 467.58L282.97 486.08L282.97 523.08L250.93 541.58L218.88 523.08L218.88 486.08zM347.06 79.08L379.1 97.58L379.1 134.58L347.06 153.08L315.01 134.58L315.01 97.58zM347.06 301.08L379.1 319.58L379.1 356.58L347.06 375.08L315.01 356.58L315.01 319.58zM379.1 356.58L411.15 375.08L411.15 412.08L379.1 430.58L347.06 412.08L347.06 375.08zM411.15 -31.92L443.19 -13.42L443.19 23.58L411.15 42.08L379.1 23.58L379.1 -13.42zM411.15 79.08L443.19 97.58L443.19 134.58L411.15 153.08L379.1 134.58L379.1 97.58zM411.15 412.08L443.19 430.58L443.19 467.58L411.15 486.08L379.1 467.58L379.1 430.58zM411.15 523.08L443.19 541.58L443.19 578.58L411.15 597.08L379.1 578.58L379.1 541.58zM475.23 79.08L507.28 97.58L507.28 134.58L475.23 153.08L443.19 134.58L443.19 97.58zM507.28 356.58L539.32 375.08L539.32 412.08L507.28 430.58L475.23 412.08L475.23 375.08zM475.23 412.08L507.28 430.58L507.28 467.58L475.23 486.08L443.19 467.58L443.19 430.58zM507.28 467.58L539.32 486.08L539.32 523.08L507.28 541.58L475.23 523.08L475.23 486.08zM571.37 467.58L603.41 486.08L603.41 523.08L571.37 541.58L539.32 523.08L539.32 486.08zM603.41 -31.92L635.45 -13.42L635.45 23.58L603.41 42.08L571.37 23.58L571.37 -13.42zM635.45 23.58L667.5 42.08L667.5 79.08L635.45 97.58L603.41 79.08L603.41 42.08zM635.45 134.58L667.5 153.08L667.5 190.08L635.45 208.58L603.41 190.08L603.41 153.08zM699.54 23.58L731.58 42.08L731.58 79.08L699.54 97.58L667.5 79.08L667.5 42.08zM667.5 79.08L699.54 97.58L699.54 134.58L667.5 153.08L635.45 134.58L635.45 97.58zM699.54 134.58L731.58 153.08L731.58 190.08L699.54 208.58L667.5 190.08L667.5 153.08zM667.5 412.08L699.54 430.58L699.54 467.58L667.5 486.08L635.45 467.58L635.45 430.58zM667.5 523.08L699.54 541.58L699.54 578.58L667.5 597.08L635.45 578.58L635.45 541.58zM763.63 245.58L795.67 264.08L795.67 301.08L763.63 319.58L731.58 301.08L731.58 264.08zM731.58 301.08L763.63 319.58L763.63 356.58L731.58 375.08L699.54 356.58L699.54 319.58zM763.63 356.58L795.67 375.08L795.67 412.08L763.63 430.58L731.58 412.08L731.58 375.08zM731.58 412.08L763.63 430.58L763.63 467.58L731.58 486.08L699.54 467.58L699.54 430.58zM795.67 190.08L827.72 208.58L827.72 245.58L795.67 264.08L763.63 245.58L763.63 208.58zM795.67 301.08L827.72 319.58L827.72 356.58L795.67 375.08L763.63 356.58L763.63 319.58zM827.72 356.58L859.76 375.08L859.76 412.08L827.72 430.58L795.67 412.08L795.67 375.08zM827.72 467.58L859.76 486.08L859.76 523.08L827.72 541.58L795.67 523.08L795.67 486.08zM859.76 190.08L891.8 208.58L891.8 245.58L859.76 264.08L827.72 245.58L827.72 208.58zM891.8 245.58L923.85 264.08L923.85 301.08L891.8 319.58L859.76 301.08L859.76 264.08zM859.76 301.08L891.8 319.58L891.8 356.58L859.76 375.08L827.72 356.58L827.72 319.58zM859.76 412.08L891.8 430.58L891.8 467.58L859.76 486.08L827.72 467.58L827.72 430.58zM923.85 -31.92L955.89 -13.42L955.89 23.58L923.85 42.08L891.8 23.58L891.8 -13.42zM955.89 23.58L987.94 42.08L987.94 79.08L955.89 97.58L923.85 79.08L923.85 42.08zM923.85 79.08L955.89 97.58L955.89 134.58L923.85 153.08L891.8 134.58L891.8 97.58zM923.85 412.08L955.89 430.58L955.89 467.58L923.85 486.08L891.8 467.58L891.8 430.58zM923.85 523.08L955.89 541.58L955.89 578.58L923.85 597.08L891.8 578.58L891.8 541.58zM987.94 -31.92L1019.98 -13.42L1019.98 23.58L987.94 42.08L955.89 23.58L955.89 -13.42zM1019.98 23.58L1052.02 42.08L1052.02 79.08L1019.98 97.58L987.94 79.08L987.94 42.08zM987.94 190.08L1019.98 208.58L1019.98 245.58L987.94 264.08L955.89 245.58L955.89 208.58zM987.94 412.08L1019.98 430.58L1019.98 467.58L987.94 486.08L955.89 467.58L955.89 430.58zM987.94 523.08L1019.98 541.58L1019.98 578.58L987.94 597.08L955.89 578.58L955.89 541.58zM1052.02 79.08L1084.07 97.58L1084.07 134.58L1052.02 153.08L1019.98 134.58L1019.98 97.58zM1084.07 134.58L1116.11 153.08L1116.11 190.08L1084.07 208.58L1052.02 190.08L1052.02 153.08zM1084.07 356.58L1116.11 375.08L1116.11 412.08L1084.07 430.58L1052.02 412.08L1052.02 375.08zM1052.02 412.08L1084.07 430.58L1084.07 467.58L1052.02 486.08L1019.98 467.58L1019.98 430.58zM1116.11 79.08L1148.15 97.58L1148.15 134.58L1116.11 153.08L1084.07 134.58L1084.07 97.58zM1148.15 245.58L1180.2 264.08L1180.2 301.08L1148.15 319.58L1116.11 301.08L1116.11 264.08zM1116.11 301.08L1148.15 319.58L1148.15 356.58L1116.11 375.08L1084.07 356.58L1084.07 319.58zM1148.15 356.58L1180.2 375.08L1180.2 412.08L1148.15 430.58L1116.11 412.08L1116.11 375.08zM1116.11 412.08L1148.15 430.58L1148.15 467.58L1116.11 486.08L1084.07 467.58L1084.07 430.58zM1116.11 523.08L1148.15 541.58L1148.15 578.58L1116.11 597.08L1084.07 578.58L1084.07 541.58zM1212.24 23.58L1244.29 42.08L1244.29 79.08L1212.24 97.58L1180.2 79.08L1180.2 42.08zM1212.24 134.58L1244.29 153.08L1244.29 190.08L1212.24 208.58L1180.2 190.08L1180.2 153.08zM1212.24 245.58L1244.29 264.08L1244.29 301.08L1212.24 319.58L1180.2 301.08L1180.2 264.08zM1180.2 301.08L1212.24 319.58L1212.24 356.58L1180.2 375.08L1148.15 356.58L1148.15 319.58zM1180.2 523.08L1212.24 541.58L1212.24 578.58L1180.2 597.08L1148.15 578.58L1148.15 541.58zM1244.29 190.08L1276.33 208.58L1276.33 245.58L1244.29 264.08L1212.24 245.58L1212.24 208.58zM1308.37 79.08L1340.42 97.58L1340.42 134.58L1308.37 153.08L1276.33 134.58L1276.33 97.58zM1340.42 134.58L1372.46 153.08L1372.46 190.08L1340.42 208.58L1308.37 190.08L1308.37 153.08zM1340.42 245.58L1372.46 264.08L1372.46 301.08L1340.42 319.58L1308.37 301.08L1308.37 264.08zM1308.37 301.08L1340.42 319.58L1340.42 356.58L1308.37 375.08L1276.33 356.58L1276.33 319.58zM1308.37 523.08L1340.42 541.58L1340.42 578.58L1308.37 597.08L1276.33 578.58L1276.33 541.58zM1404.51 23.58L1436.55 42.08L1436.55 79.08L1404.51 97.58L1372.46 79.08L1372.46 42.08zM1372.46 301.08L1404.51 319.58L1404.51 356.58L1372.46 375.08L1340.42 356.58L1340.42 319.58zM1404.51 467.58L1436.55 486.08L1436.55 523.08L1404.51 541.58L1372.46 523.08L1372.46 486.08zM1468.59 134.58L1500.64 153.08L1500.64 190.08L1468.59 208.58L1436.55 190.08L1436.55 153.08zM1436.55 301.08L1468.59 319.58L1468.59 356.58L1436.55 375.08L1404.51 356.58L1404.51 319.58zM1468.59 356.58L1500.64 375.08L1500.64 412.08L1468.59 430.58L1436.55 412.08L1436.55 375.08zM1436.55 412.08L1468.59 430.58L1468.59 467.58L1436.55 486.08L1404.51 467.58L1404.51 430.58z" stroke="rgba(6, 80, 156, 0.93)" stroke-width="2"></path></g><defs><mask id="SvgjsMask1563"><rect width="1440" height="560" fill="#ffffff"></rect></mask><linearGradient x1="15.28%" y1="-39.29%" x2="84.72%" y2="139.29%" gradientUnits="userSpaceOnUse" id="SvgjsLinearGradient1564"><stop stop-color="rgba(14, 42, 71, 0.93)" offset="0.15"></stop><stop stop-color="rgba(0, 69, 158, 1)" offset="0.71"></stop></linearGradient></defs></svg>